<?xml version="1.0" encoding="utf-8"?>
<!-- Generator: Adobe Illustrator 22.1.0, SVG Export Plug-In . SVG Version: 6.00 Build 0)  -->
<svg version="1.1" id="Слой_1" xmlns="http://www.w3.org/2000/svg" xmlns:xlink="http://www.w3.org/1999/xlink" x="0px" y="0px"
	 viewBox="0 0 600 600" style="enable-background:new 0 0 600 600;" xml:space="preserve">
<style type="text/css">
	.st0{fill:#2A6592;}
	.st1{fill:#FFFFFF;stroke:#2A6592;stroke-width:7;stroke-miterlimit:10;}
	.st2{fill:#FFFFFF;}
</style>
<g>
	<circle class="st0" cx="300" cy="300" r="300"/>
</g>
<path class="st1" d="M478.7,150H121.3c-8.1,0-14.7,6.6-14.7,14.7v117.7c0,8.1,6.6,14.7,14.7,14.7h357.5c8.1,0,14.7-6.6,14.7-14.7
	V164.7C493.4,156.6,486.8,150,478.7,150z"/>
<path class="st1" d="M409.6,282.4H190.5c-8.1,0-14.7-6.6-14.7-14.7v-16.2c0-8.1,6.6-14.7,14.7-14.7h219.2c8.1,0,14.7,6.6,14.7,14.7
	v16.2C424.3,275.8,417.7,282.4,409.6,282.4z"/>
<path class="st1" d="M494.2,267.7H105.8c-4,0-7.4,3.3-7.4,7.4v7.4c0,4,3.3,7.4,7.4,7.4h388.4c4,0,7.4-3.3,7.4-7.4v-7.4
	C501.5,271,498.2,267.7,494.2,267.7z"/>
<path class="st1" d="M500.9,281H99.2c-8.1,0-14.7,6.6-14.7,14.7v35.3c0,8.1,6.6,14.7,14.7,14.7h401.6c8.1,0,14.7-6.6,14.7-14.7
	v-35.3C515.6,287.6,509,281,500.9,281z"/>
<polygon class="st2" points="294.1,308.9 305.9,308.9 305.9,308.9 "/>
<path class="st1" d="M523,319.2H77.2c-9.7,0-17.6,8-17.6,17.6V403c0,9.7,8,17.6,17.6,17.6h52.9v-26.5c0-9.7,8-17.6,17.6-17.6h304.6
	c9.7,0,17.6,8,17.6,17.6v26.5h52.9c9.7,0,17.6-8,17.6-17.6v-66.2C540.6,327.1,532.6,319.2,523,319.2z"/>
<polygon points="519.4,531 515,531 515,531 "/>
</svg>
