<?xml version="1.0" encoding="utf-8"?>
<!-- Generator: Adobe Illustrator 22.1.0, SVG Export Plug-In . SVG Version: 6.00 Build 0)  -->
<svg version="1.1" id="Слой_1" xmlns="http://www.w3.org/2000/svg" xmlns:xlink="http://www.w3.org/1999/xlink" x="0px" y="0px"
	 viewBox="0 0 600 600" style="enable-background:new 0 0 600 600;" xml:space="preserve">
<style type="text/css">
	.st0{fill:#2A6592;}
	.st1{fill:#FFFFFF;stroke:#2A6592;stroke-width:7;stroke-miterlimit:10;}
	.st2{fill:none;stroke:#2A6592;stroke-width:7;stroke-miterlimit:10;}
</style>
<g>
	<circle class="st0" cx="300" cy="300" r="300"/>
</g>
<path class="st1" d="M402.8,128.4H195.2c-5.4,0-9.9,4.4-9.9,9.9v323.6c0,5.4,4.4,9.9,9.9,9.9h26.2v-24c0-5.4,4.4-9.9,9.9-9.9H372
	c5.4,0,9.9,4.4,9.9,9.9v24h20.9c5.4,0,9.9-4.4,9.9-9.9V138.2C412.7,132.8,408.3,128.4,402.8,128.4z"/>
<path class="st1" d="M392.5,422H205.6c-2.2,0-4-1.8-4-4V147.7c0-2.2,1.8-4,4-4h186.9c2.2,0,4,1.8,4,4V418
	C396.5,420.2,394.6,422,392.5,422z"/>
<line class="st2" x1="202.4" y1="204" x2="396" y2="204"/>
<line class="st2" x1="202.4" y1="276.6" x2="393.5" y2="276.6"/>
<line class="st2" x1="201.6" y1="355.7" x2="395.3" y2="355.7"/>
<path class="st2" d="M217.5,276.6h-11c-2.2,0-4-1.8-4-4v-48.9c0-2.2,1.8-4,4-4h11c2.2,0,4,1.8,4,4l0,48.9
	C221.5,274.8,219.7,276.6,217.5,276.6z"/>
<path class="st2" d="M236.5,276.6h-11c-2.2,0-4-1.8-4-4v-48.9c0-2.2,1.8-4,4-4h11c2.2,0,4,1.8,4,4l0,48.9
	C240.5,274.8,238.7,276.6,236.5,276.6z"/>
<path class="st2" d="M255.5,276.6h-11c-2.2,0-4-1.8-4-4v-48.9c0-2.2,1.8-4,4-4h11c2.2,0,4,1.8,4,4v48.9
	C259.5,274.8,257.7,276.6,255.5,276.6z"/>
<path class="st2" d="M308.6,263.2l-7.8,7.8c-1.6,1.6-4.1,1.6-5.7,0l-34.6-34.6c-1.6-1.6-1.6-4.1,0-5.7l7.8-7.8
	c1.6-1.6,4.1-1.6,5.7,0l34.6,34.6C310.2,259.1,310.2,261.6,308.6,263.2z"/>
<path class="st2" d="M353.8,355.7h-11c-2.2,0-4-1.8-4-4v-48.9c0-2.2,1.8-4,4-4h11c2.2,0,4,1.8,4,4v48.9
	C357.9,353.9,356,355.7,353.8,355.7z"/>
<path class="st2" d="M372.8,355.7h-11c-2.2,0-4-1.8-4-4l0-48.9c0-2.2,1.8-4,4-4h11c2.2,0,4,1.8,4,4v48.9
	C376.8,353.9,375,355.7,372.8,355.7z"/>
<path class="st2" d="M390.8,355.7h-11c-2.2,0-4-1.8-4-4l0-48.9c0-2.2,1.8-4,4-4h11c2.2,0,4,1.8,4,4v48.9
	C394.8,353.9,393,355.7,390.8,355.7z"/>
<path class="st2" d="M217.5,422h-11c-2.2,0-4-1.8-4-4v-48.9c0-2.2,1.8-4,4-4h11c2.2,0,4,1.8,4,4l0,48.9
	C221.5,420.2,219.7,422,217.5,422z"/>
<path class="st2" d="M270.6,413.1l-7.8,7.8c-1.6,1.6-4.1,1.6-5.7,0l-34.6-34.6c-1.6-1.6-1.6-4.1,0-5.7l7.8-7.8
	c1.6-1.6,4.1-1.6,5.7,0l34.6,34.6C272.2,409,272.2,411.5,270.6,413.1z"/>
</svg>
