<?xml version="1.0" encoding="utf-8"?>
<!-- Generator: Adobe Illustrator 22.1.0, SVG Export Plug-In . SVG Version: 6.00 Build 0)  -->
<svg version="1.1" id="Слой_1" xmlns="http://www.w3.org/2000/svg" xmlns:xlink="http://www.w3.org/1999/xlink" x="0px" y="0px"
	 viewBox="0 0 600 600" style="enable-background:new 0 0 600 600;" xml:space="preserve">
<style type="text/css">
	.st0{fill:#2A6592;}
	.st1{fill:#FFFFFF;stroke:#2A6592;stroke-width:7;stroke-miterlimit:10;}
	.st2{fill:#FFFFFF;stroke:#2A6592;stroke-width:7;stroke-linecap:round;stroke-linejoin:round;stroke-miterlimit:10;}
	.st3{fill:none;stroke:#2A6592;stroke-width:7;stroke-linecap:round;stroke-miterlimit:10;}
</style>
<g>
	<circle class="st0" cx="300" cy="300" r="300"/>
</g>
<path class="st1" d="M403.8,128.4H196.2c-5.4,0-9.9,4.4-9.9,9.9v323.6c0,5.4,4.4,9.9,9.9,9.9h26.2v-24c0-5.4,4.4-9.9,9.9-9.9H373
	c5.4,0,9.9,4.4,9.9,9.9v24h20.9c5.4,0,9.9-4.4,9.9-9.9V138.2C413.7,132.8,409.3,128.4,403.8,128.4z"/>
<path class="st1" d="M391.7,419.8H208.3c-2.2,0-4-1.8-4-4V150c0-2.2,1.8-4,4-4h183.5c2.2,0,4,1.8,4,4v265.8
	C395.7,418,393.9,419.8,391.7,419.8z"/>
<g>
	<path class="st1" d="M342.3,230.2h-82.9c-5.4,0-9.9-4.4-9.9-9.9v-13.1c0-5.4,4.4-9.9,9.9-9.9h82.9c5.4,0,9.9,4.4,9.9,9.9v13.1
		C352.1,225.8,347.7,230.2,342.3,230.2z"/>
	<path class="st2" d="M300.6,197.3c0-6.8,0-13.7,0-20.5c0.1-3.4,2.1-6.4,4.9-7.4c3.7-1.2,8.5,1.1,9.9,5.7"/>
</g>
<path class="st3" d="M309.9,182.6c27.5,0,55.1,0,82.6,0"/>
<line class="st3" x1="204.3" y1="182.6" x2="291" y2="182.6"/>
<path class="st1" d="M328.3,325.5h-55c-5.4,0-9.9-4.4-9.9-9.9v-92c0-5.4,4.4-9.9,9.9-9.9h55c5.4,0,9.9,4.4,9.9,9.9v92
	C338.1,321,333.7,325.5,328.3,325.5z"/>
</svg>
