<?xml version="1.0" encoding="utf-8"?>
<!-- Generator: Adobe Illustrator 22.1.0, SVG Export Plug-In . SVG Version: 6.00 Build 0)  -->
<svg version="1.1" id="Слой_1" xmlns="http://www.w3.org/2000/svg" xmlns:xlink="http://www.w3.org/1999/xlink" x="0px" y="0px"
	 viewBox="0 0 600 600" style="enable-background:new 0 0 600 600;" xml:space="preserve">
<style type="text/css">
	.st0{fill:#2A6592;}
	.st1{fill:#FFFFFF;stroke:#2A6592;stroke-width:7;stroke-miterlimit:10;}
	.st2{fill:none;stroke:#2A6592;stroke-width:7;stroke-miterlimit:10;}
</style>
<g>
	<circle class="st0" cx="300.1" cy="300" r="300"/>
</g>
<path class="st1" d="M300.1,336.5L300.1,336.5c-6.1,0-11-4.9-11-11v-35c0-6.1,5-11,11-11l0,0c6,0,11,4.9,11,11v35
	C311.1,331.6,306.2,336.5,300.1,336.5z"/>
<path class="st1" d="M408.6,346.5h-217c-6.6,0-12-5.4-12-12v-5c0-6.6,5.4-12,12-12h217c6.6,0,12,5.4,12,12v5
	C420.6,341.1,415.2,346.5,408.6,346.5z"/>
<path class="st1" d="M473.1,336.5h-346c-6.6,0-12,5.4-12,12v75c0,6.6,5.4,12,12,12h45v-17c0-6.6,5.4-12,12-12h217
	c6.6,0,12,5.4,12,12v17h60c6.6,0,12-5.4,12-12v-75C485.1,341.9,479.7,336.5,473.1,336.5z"/>
<path class="st1" d="M466.3,384.3H134c-2.2,0-4-1.8-4-4v-25c0-2.2,1.8-4,4-4h332.3c2.2,0,4,1.8,4,4v25
	C470.3,382.5,468.5,384.3,466.3,384.3z"/>
<path class="st1" d="M408.1,299.5h-216c-6.6,0-12-5.4-12-12v-128c0-6.6,5.4-12,12-12h216c6.6,0,12,5.4,12,12v128
	C420.1,294.1,414.7,299.5,408.1,299.5z"/>
<path class="st0" d="M302.5,372h-6c-1.9,0-3.5-1.6-3.5-3.5l0,0c0-1.9,1.6-3.5,3.5-3.5h6c1.9,0,3.5,1.6,3.5,3.5l0,0
	C306,370.4,304.5,372,302.5,372z"/>
<path class="st2" d="M401.3,285.3H199.7c-2.2,0-4-1.8-4-4v-115c0-2.2,1.8-4,4-4h201.7c2.2,0,4,1.8,4,4v115
	C405.3,283.5,403.5,285.3,401.3,285.3z"/>
</svg>
