<?xml version="1.0" encoding="utf-8"?>
<!-- Generator: Adobe Illustrator 22.1.0, SVG Export Plug-In . SVG Version: 6.00 Build 0)  -->
<svg version="1.1" id="Слой_1" xmlns="http://www.w3.org/2000/svg" xmlns:xlink="http://www.w3.org/1999/xlink" x="0px" y="0px"
	 viewBox="0 0 600 600" style="enable-background:new 0 0 600 600;" xml:space="preserve">
<style type="text/css">
	.st0{fill:#2A6592;}
	.st1{fill:#2A6592;stroke:#FFFFFF;stroke-width:7;stroke-miterlimit:10;}
	.st2{fill:#FFFFFF;stroke:#2A6592;stroke-width:7;stroke-miterlimit:10;}
</style>
<g>
	<circle class="st0" cx="300" cy="300" r="300"/>
</g>
<path class="st1" d="M-695.3,192.6h-254.1c-6.6,0-12-5.4-12-12v-335.1c0-6.6,5.4-12,12-12h254.1c6.6,0,12,5.4,12,12v335.1
	C-683.3,187.2-688.7,192.6-695.3,192.6z"/>
<path class="st2" d="M413.5,466.5h-226c-6.6,0-12-5.4-12-12v-320c0-6.6,5.4-12,12-12h226c6.6,0,12,5.4,12,12v320
	C425.5,461.1,420.1,466.5,413.5,466.5z"/>
<path class="st2" d="M403.3,446.4H294.7c-2.2,0-4-1.8-4-4V145.9c0-2.2,1.8-4,4-4h108.6c2.2,0,4,1.8,4,4v296.5
	C407.3,444.6,405.5,446.4,403.3,446.4z"/>
<path class="st2" d="M312.5,464.7h-125c-6.6,0-12-5.4-12-12v-317c0-6.6,5.4-12,12-12h125c6.6,0,12,5.4,12,12v317
	C324.5,459.3,319.1,464.7,312.5,464.7z"/>
<path class="st2" d="M287.5,349.9c-6.6,0-12-5.4-12-12v-87.5c0-6.6,5.4-12,12-12H306v-92.5c0-2.2-1.8-4-4-4H197.6c-2.2,0-4,1.8-4,4
	v296.5c0,2.2,1.8,4,4,4H302c2.2,0,4-1.8,4-4v-92.5H287.5z"/>
<path class="st2" d="M305,337.5h-15.7c-0.6,0-1-0.5-1-1V252c0-0.6,0.4-1,1-1H305c0.5,0,1,0.4,1,1v84.5
	C306,337,305.5,337.5,305,337.5z"/>
</svg>
