<?xml version="1.0" encoding="utf-8"?>
<!-- Generator: Adobe Illustrator 22.1.0, SVG Export Plug-In . SVG Version: 6.00 Build 0)  -->
<svg version="1.1" id="Слой_1" xmlns="http://www.w3.org/2000/svg" xmlns:xlink="http://www.w3.org/1999/xlink" x="0px" y="0px"
	 viewBox="0 0 600 600" style="enable-background:new 0 0 600 600;" xml:space="preserve">
<style type="text/css">
	.st0{fill:#2A6592;}
	.st1{fill:#2A6592;stroke:#FFFFFF;stroke-width:7;stroke-miterlimit:10;}
	.st2{fill:#FFFFFF;stroke:#2A6592;stroke-width:7;stroke-miterlimit:10;}
</style>
<g>
	<circle class="st0" cx="300" cy="300" r="300"/>
</g>
<polygon class="st1" points="313.5,-590.5 313.5,-590.5 313.5,-590.5 "/>
<path class="st1" d="M414.1,462.5H217.4c-5.7,0-10.4-5.1-10.4-11.4V146.9c0-6.3,4.7-11.4,10.4-11.4h196.6c5.7,0,10.4,5.1,10.4,11.4
	v304.2C424.5,457.4,419.8,462.5,414.1,462.5z"/>
<path class="st2" d="M311.5,469.7h-125c-6.6,0-12-5.4-12-12v-317c0-6.6,5.4-12,12-12h125c6.6,0,12,5.4,12,12v317
	C323.5,464.3,318.1,469.7,311.5,469.7z"/>
<path class="st2" d="M286.5,354.9c-6.6,0-12-5.4-12-12v-87.5c0-6.6,5.4-12,12-12H305v-92.5c0-2.2-1.8-4-4-4H196.6c-2.2,0-4,1.8-4,4
	v296.5c0,2.2,1.8,4,4,4H301c2.2,0,4-1.8,4-4v-92.5H286.5z"/>
<path class="st2" d="M304,342.5h-15.7c-0.6,0-1-0.5-1-1V257c0-0.5,0.4-1,1-1H304c0.5,0,1,0.5,1,1v84.5
	C305,342,304.5,342.5,304,342.5z"/>
</svg>
