<?xml version="1.0" encoding="utf-8"?>
<!-- Generator: Adobe Illustrator 22.1.0, SVG Export Plug-In . SVG Version: 6.00 Build 0)  -->
<svg version="1.1" id="Слой_1" xmlns="http://www.w3.org/2000/svg" xmlns:xlink="http://www.w3.org/1999/xlink" x="0px" y="0px"
	 viewBox="0 0 600 600" style="enable-background:new 0 0 600 600;" xml:space="preserve">
<style type="text/css">
	.st0{fill:#2A6592;}
	.st1{fill:#FFFFFF;stroke:#2A6592;stroke-width:7;stroke-miterlimit:10;}
	.st2{fill:#FFFFFF;}
</style>
<g>
	<circle class="st0" cx="300" cy="300" r="300"/>
</g>
<path class="st1" d="M124.8,366h201.1c6.6,0,12,5.4,12,12v73c0,6.6-5.4,12-12,12H124.8c-6.6,0-12-5.4-12-12v-73
	C112.8,371.4,118.2,366,124.8,366z"/>
<path class="st1" d="M346.7,331.7L346.7,331.7c-4.8,0-8.8-4-8.8-8.8v-46.2c0-4.8,4-8.8,8.8-8.8l0,0c4.8,0,8.8,4,8.8,8.8v46.2
	C355.5,327.8,351.5,331.7,346.7,331.7z"/>
<path class="st1" d="M455.8,161H348.5c-6.1,0-11.1,5-11.1,11.2v81.9h19.4c6.1,0,11.1,5,11.1,11.2v68.9c0,6.1-5,11.2-11.1,11.2h-19.4
	v81c0,6.1,5,11.2,11.1,11.2h107.3c6.1,0,11.1-5,11.1-11.2V172.2C466.9,166.1,461.9,161,455.8,161z"/>
<path class="st1" d="M287.5,167.6H124.8c-6.6,0-12-5.4-12-12V134c0-6.6,5.4-12,12-12h162.8c6.6,0,12,5.4,12,12v21.6
	C299.5,162.2,294.1,167.6,287.5,167.6z"/>
<g>
	<path class="st2" d="M145.9,210.3c-0.4,0-0.8,0-1.2,0c-8.2-0.6-15.1-7.3-16.3-16c-0.5-3.7,2-7.1,5.7-7.7c0.3,0,0.7-0.1,1-0.1
		c3.3,0,6.2,2.5,6.7,5.8c0.3,2.3,2.1,4.3,4,4.5c0.1,0,0.1,0,0.2,0c0.9,0,2-0.4,2.8-1.2c1.2-1.1,1.8-2.6,1.8-4.2v-40.9
		c0-3.7,3-6.8,6.7-6.8s6.7,3,6.7,6.8v41c0,5.4-2.3,10.5-6.1,14.1C154.5,208.6,150.3,210.3,145.9,210.3z"/>
	<path class="st0" d="M157.2,147.2c1.8,0,3.2,1.5,3.2,3.3v41c0,4.4-1.8,8.6-5,11.5c-2.7,2.5-6.1,3.9-9.6,3.9c-0.3,0-0.6,0-0.9,0
		c-6.6-0.5-12.1-6-13.1-13c-0.3-1.8,1-3.4,2.7-3.7c0.2,0,0.3,0,0.5,0c1.6,0,3,1.2,3.2,2.8c0.6,4,3.7,7.2,7.2,7.5c0.1,0,0.3,0,0.5,0
		c1.8,0,3.7-0.8,5.2-2.2c1.9-1.7,2.9-4.1,2.9-6.7v-40.9C154,148.7,155.4,147.2,157.2,147.2 M157.2,140.2c-5.6,0-10.2,4.6-10.2,10.3
		v40.9c0,0.6-0.2,1.2-0.7,1.6c-0.1,0.1-0.3,0.2-0.3,0.2c-0.3-0.2-0.7-0.7-0.8-1.4c-0.7-5-5.1-8.8-10.1-8.8c-0.5,0-1,0-1.5,0.1
		c-5.6,0.8-9.5,6-8.6,11.6c1.5,10.3,9.7,18.3,19.5,19c0.5,0,1,0.1,1.5,0.1c5.2,0,10.3-2,14.3-5.8c4.6-4.2,7.2-10.3,7.2-16.6v-41
		C167.5,144.8,162.9,140.2,157.2,140.2L157.2,140.2z"/>
</g>
<g>
	<path class="st2" d="M190.3,210.3c-0.4,0-0.8,0-1.2,0c-8.2-0.6-15.1-7.3-16.3-16c-0.5-3.7,2-7.1,5.7-7.7c0.3,0,0.7-0.1,1-0.1
		c3.3,0,6.2,2.5,6.7,5.8c0.3,2.3,2.1,4.3,4,4.5c0.1,0,0.1,0,0.2,0c0.9,0,2-0.4,2.8-1.2c1.2-1.1,1.8-2.6,1.8-4.2v-40.9
		c0-3.7,3-6.8,6.7-6.8s6.7,3,6.7,6.8v41c0,5.4-2.3,10.5-6.1,14.1C198.9,208.6,194.6,210.3,190.3,210.3z"/>
	<path class="st0" d="M201.6,147.2c1.8,0,3.2,1.5,3.2,3.3v41c0,4.4-1.8,8.6-5,11.5c-2.7,2.5-6.1,3.9-9.6,3.9c-0.3,0-0.6,0-0.9,0
		c-6.6-0.5-12.1-6-13.1-13c-0.3-1.8,1-3.4,2.7-3.7c0.2,0,0.3,0,0.5,0c1.6,0,3,1.2,3.2,2.8c0.6,4,3.7,7.2,7.2,7.5c0.1,0,0.3,0,0.5,0
		c1.8,0,3.7-0.8,5.2-2.2c1.9-1.7,2.9-4.1,2.9-6.7v-40.9C198.4,148.7,199.8,147.2,201.6,147.2 M201.6,140.2
		c-5.6,0-10.2,4.6-10.2,10.3v40.9c0,0.6-0.2,1.2-0.7,1.6c-0.1,0.1-0.3,0.2-0.3,0.2c-0.3-0.2-0.7-0.7-0.8-1.4
		c-0.7-5-5.1-8.8-10.1-8.8c-0.5,0-1,0-1.5,0.1c-5.6,0.8-9.5,6-8.6,11.6c1.5,10.3,9.7,18.3,19.5,19c0.5,0,1,0.1,1.5,0.1
		c5.2,0,10.3-2,14.3-5.8c4.6-4.2,7.2-10.3,7.2-16.6v-41C211.9,144.8,207.3,140.2,201.6,140.2L201.6,140.2z"/>
</g>
<path class="st1" d="M317.8,414.5H132.5c-2.2,0-4-1.8-4-4v-25.2c0-2.2,1.8-4,4-4h185.3c2.2,0,4,1.8,4,4v25.2
	C321.8,412.7,320,414.5,317.8,414.5z"/>
<g>
	<path class="st2" d="M240.2,210.3c-0.4,0-0.8,0-1.2,0c-8.2-0.6-15.1-7.3-16.3-16c-0.5-3.7,2-7.1,5.7-7.7c0.3,0,0.7-0.1,1-0.1
		c3.3,0,6.2,2.5,6.7,5.8c0.3,2.3,2.1,4.3,4,4.5c0.1,0,0.1,0,0.2,0c0.9,0,2-0.4,2.8-1.2c1.2-1.1,1.8-2.6,1.8-4.2v-40.9
		c0-3.7,3-6.8,6.7-6.8s6.7,3,6.7,6.8v41c0,5.4-2.3,10.5-6.1,14.1C248.8,208.6,244.6,210.3,240.2,210.3z"/>
	<path class="st0" d="M251.6,147.2c1.8,0,3.2,1.5,3.2,3.3v41c0,4.4-1.8,8.6-5,11.5c-2.7,2.5-6.1,3.9-9.6,3.9c-0.3,0-0.6,0-0.9,0
		c-6.6-0.5-12.1-6-13.1-13c-0.3-1.8,1-3.4,2.7-3.7c0.2,0,0.3,0,0.5,0c1.6,0,3,1.2,3.2,2.8c0.6,4,3.7,7.2,7.2,7.5c0.1,0,0.3,0,0.5,0
		c1.8,0,3.7-0.8,5.2-2.2c1.9-1.7,2.9-4.1,2.9-6.7v-40.9C248.3,148.7,249.8,147.2,251.6,147.2 M251.6,140.2
		c-5.6,0-10.2,4.6-10.2,10.3v40.9c0,0.6-0.2,1.2-0.7,1.6c-0.1,0.1-0.3,0.2-0.3,0.2c-0.3-0.2-0.7-0.7-0.8-1.4
		c-0.7-5-5.1-8.8-10.1-8.8c-0.5,0-1,0-1.5,0.1c-5.6,0.8-9.5,6-8.6,11.6c1.5,10.3,9.7,18.3,19.5,19c0.5,0,1,0.1,1.5,0.1
		c5.2,0,10.3-2,14.3-5.8c4.6-4.2,7.2-10.3,7.2-16.6v-41C261.8,144.8,257.2,140.2,251.6,140.2L251.6,140.2z"/>
</g>
<path class="st0" d="M235.1,400.5h-20c-1.1,0-2-0.9-2-2v-1.1c0-1.1,0.9-2,2-2h20c1.1,0,2,0.9,2,2v1.1
	C237.1,399.6,236.2,400.5,235.1,400.5z"/>
<path class="st1" d="M337.4,451V134c0-6.6,5.4-12,12-12h125c6.6,0,12,5.4,12,12v317c0,6.6-5.4,12-12,12h-125
	C342.8,463,337.4,457.6,337.4,451z"/>
<path class="st1" d="M374.4,348.2c6.6,0,12-5.4,12-12v-87.5c0-6.6-5.4-12-12-12h-18.5v-92.5c0-2.2,1.8-4,4-4h104.4c2.2,0,4,1.8,4,4
	v296.5c0,2.2-1.8,4-4,4H359.9c-2.2,0-4-1.8-4-4v-92.5H374.4z"/>
<path class="st1" d="M356.9,335.8h15.7c0.6,0,1-0.4,1-1v-84.5c0-0.6-0.4-1-1-1h-15.7c-0.5,0-1,0.4-1,1v84.5
	C355.9,335.4,356.4,335.8,356.9,335.8z"/>
</svg>
