<?xml version="1.0" encoding="utf-8"?>
<!-- Generator: Adobe Illustrator 22.1.0, SVG Export Plug-In . SVG Version: 6.00 Build 0)  -->
<svg version="1.1" id="Слой_1" xmlns="http://www.w3.org/2000/svg" xmlns:xlink="http://www.w3.org/1999/xlink" x="0px" y="0px"
	 viewBox="0 0 2000 2000" style="enable-background:new 0 0 2000 2000;" xml:space="preserve">
<style type="text/css">
	.st0{fill:#2A6592;}
</style>
<g>
	<path class="st0" d="M1000,488c-70.7,0-131,25-181,75s-75,110.3-75,181s25,131,75,181s110.3,75,181,75s131-25,181-75
		s75-110.3,75-181s-25-131-75-181S1070.7,488,1000,488z"/>
	<path class="st0" d="M1000,0C447.7,0,0,447.7,0,1000s447.7,1000,1000,1000s1000-447.7,1000-1000S1552.3,0,1000,0z M1479,923
		l-364,774c-10.7,22-26.5,39.3-47.5,52s-43.5,19-67.5,19s-46.5-6.3-67.5-19s-36.5-30-46.5-52L521,923c-22-46.7-33-106.3-33-179
		c0-141.3,50-262,150-362s220.7-150,362-150s262,50,362,150s150,220.7,150,362C1512,816.7,1501,876.3,1479,923z"/>
</g>
</svg>
