<?xml version="1.0" encoding="utf-8"?>
<!-- Generator: Adobe Illustrator 22.1.0, SVG Export Plug-In . SVG Version: 6.00 Build 0)  -->
<svg version="1.1" id="Слой_1" xmlns="http://www.w3.org/2000/svg" xmlns:xlink="http://www.w3.org/1999/xlink" x="0px" y="0px"
	 viewBox="0 0 600 600" style="enable-background:new 0 0 600 600;" xml:space="preserve">
<style type="text/css">
	.st0{fill:#2A6592;}
	.st1{fill:#FFFFFF;stroke:#2A6592;stroke-width:7;stroke-miterlimit:10;}
	.st2{fill:none;stroke:#2A6592;stroke-width:7;stroke-linecap:round;stroke-miterlimit:10;}
</style>
<g>
	<circle class="st0" cx="300" cy="300" r="300"/>
</g>
<g>
	<path class="st1" d="M476.5,370.3H182.7c-6.6,0-12-5.4-12-12V189.5c0-6.6,5.4-12,12-12h293.8c6.6,0,12,5.4,12,12v168.8
		C488.5,364.9,483.1,370.3,476.5,370.3z"/>
	<path class="st1" d="M441.3,409H147.5c-6.6,0-12-5.4-12-12V228.2c0-6.6,5.4-12,12-12h293.8c6.6,0,12,5.4,12,12V397
		C453.3,403.6,447.9,409,441.3,409z"/>
	<path class="st1" d="M419.3,390.5h-92.2c-6.6,0-12-5.4-12-12v-15.6c0-6.6,5.4-12,12-12h92.2c6.6,0,12,5.4,12,12v15.6
		C431.3,385.1,425.9,390.5,419.3,390.5z"/>
	<line class="st2" x1="155.7" y1="302.5" x2="204.2" y2="302.5"/>
	<line class="st2" x1="216.5" y1="302.5" x2="251.7" y2="302.5"/>
	<line class="st2" x1="155.7" y1="315.7" x2="251.7" y2="315.7"/>
	<line class="st2" x1="252.1" y1="328.9" x2="210.8" y2="328.9"/>
	<line class="st2" x1="155.7" y1="328.9" x2="179.5" y2="328.9"/>
	<rect x="135.5" y="244.4" class="st1" width="317.8" height="35.2"/>
</g>
</svg>
