<?xml version="1.0" encoding="utf-8"?>
<!-- Generator: Adobe Illustrator 22.1.0, SVG Export Plug-In . SVG Version: 6.00 Build 0)  -->
<svg version="1.1" id="Слой_1" xmlns="http://www.w3.org/2000/svg" xmlns:xlink="http://www.w3.org/1999/xlink" x="0px" y="0px"
	 viewBox="0 0 600 600" style="enable-background:new 0 0 600 600;" xml:space="preserve">
<style type="text/css">
	.st0{fill:#2A6592;}
	.st1{fill:#FFFFFF;stroke:#2A6592;stroke-width:7;stroke-miterlimit:10;}
	.st2{fill:#FFFFFF;}
</style>
<g>
	<circle class="st0" cx="300" cy="300" r="300"/>
</g>
<path class="st1" d="M392.9,168l-39-39c-7.2-7.2-19.1-7.2-26.3,0L214.5,242.1c-7.2,7.2-7.2,19.1,0,26.3c7.2,7.2,19.1,7.2,26.3,0
	l99.9-99.9l25.8,25.8c7.2,7.2,19.1,7.2,26.3,0C400.1,187.1,400.1,175.2,392.9,168z"/>
<path class="st1" d="M409.3,200l-16.2-16.2c-4.7-4.7-4.7-12.3,0-17l47.4-47.4c4.7-4.7,12.3-4.7,17,0l16.2,16.2
	c4.7,4.7,4.7,12.3,0,17L426.2,200C421.6,204.6,413.9,204.6,409.3,200z"/>
<path class="st2" d="M147.8,446.4l-2.1-2.1c-1.6-1.6-4.1-1.6-5.7,0l-31.4,31.4c-1.6,1.6-1.6,4.1,0,5.7l2.1,2.1
	c1.6,1.6,4.1,1.6,5.7,0l31.4-31.4C149.4,450.5,149.4,448,147.8,446.4z"/>
<path class="st1" d="M136.3,472.9l-18.1-18.1c-4.7-4.7-4.7-12.3,0-17l39.6-39.6c4.7-4.7,12.3-4.7,17,0l18.1,18.1
	c4.7,4.7,4.7,12.3,0,17l-39.6,39.6C148.6,477.6,141,477.6,136.3,472.9z"/>
<path class="st1" d="M181.6,460.8L132.8,412c-4.7-4.7-4.7-12.3,0-17l257-257c4.7-4.7,12.3-4.7,17,0l48.8,48.8c4.7,4.7,4.7,12.3,0,17
	l-257,257C193.9,465.4,186.3,465.4,181.6,460.8z"/>
<path class="st1" d="M156.2,405.5l32,32c1.6,1.6,4.1,1.6,5.7,0l239-239c1.6-1.6,1.6-4.1,0-5.7l-32-32c-1.6-1.6-4.1-1.6-5.7,0
	l-239,239C154.6,401.4,154.6,403.9,156.2,405.5z"/>
</svg>
