<?xml version="1.0" encoding="utf-8"?>
<!-- Generator: Adobe Illustrator 22.1.0, SVG Export Plug-In . SVG Version: 6.00 Build 0)  -->
<svg version="1.1" id="Слой_1" xmlns="http://www.w3.org/2000/svg" xmlns:xlink="http://www.w3.org/1999/xlink" x="0px" y="0px"
	 viewBox="0 0 600 600" style="enable-background:new 0 0 600 600;" xml:space="preserve">
<style type="text/css">
	.st0{fill:#2A6592;}
	.st1{fill:#FFFFFF;stroke:#2A6592;stroke-width:7;stroke-miterlimit:10;}
	.st2{fill:none;stroke:#2A6592;stroke-width:7;stroke-linecap:round;stroke-miterlimit:10;}
	.st3{fill:#FFFFFF;}
	.st4{fill:none;stroke:#2A6592;stroke-width:7;stroke-miterlimit:10;}
</style>
<g>
	<circle class="st0" cx="300" cy="300" r="300"/>
</g>
<path class="st1" d="M387.6,486.5H212.4c-6.6,0-12-5.4-12-12v-337c0-6.6,5.4-12,12-12h175.2c6.6,0,12,5.4,12,12v337
	C399.6,481.1,394.2,486.5,387.6,486.5z"/>
<path class="st1" d="M342,467.5h-84c-5.2,0-9.5-4.3-9.5-9.5l0,0c0-5.2,4.3-9.5,9.5-9.5h84c5.2,0,9.5,4.3,9.5,9.5l0,0
	C351.5,463.2,347.2,467.5,342,467.5z"/>
<line class="st2" x1="272.5" y1="146.5" x2="327.5" y2="146.5"/>
<g>
	<path class="st3" d="M221.5,422.8c0,2.8,2.2,5,5,5h147c2.8,0,5-2.2,5-5V171c0-2.8-2.2-5-5-5h-147c-2.8,0-5,2.2-5,5V422.8z"/>
	<path class="st4" d="M221.5,422.8c0,2.8,2.2,5,5,5h147c2.8,0,5-2.2,5-5V171c0-2.8-2.2-5-5-5h-147c-2.8,0-5,2.2-5,5V422.8z"/>
</g>
</svg>
