<?xml version="1.0" encoding="utf-8"?>
<!-- Generator: Adobe Illustrator 22.1.0, SVG Export Plug-In . SVG Version: 6.00 Build 0)  -->
<svg version="1.1" id="Слой_1" xmlns="http://www.w3.org/2000/svg" xmlns:xlink="http://www.w3.org/1999/xlink" x="0px" y="0px"
	 viewBox="0 0 1920 830" style="enable-background:new 0 0 1920 830;" xml:space="preserve">
<style type="text/css">
	.st0{fill:none;stroke:#E5E9F0;stroke-width:40.4375;stroke-linecap:round;stroke-miterlimit:10;}
	.st1{fill:none;stroke:#E5E9F0;stroke-width:33.698;stroke-linecap:round;stroke-linejoin:round;stroke-miterlimit:10;}
	.st2{fill:none;stroke:#000000;stroke-width:11.7943;stroke-miterlimit:10;}
	.st3{fill:none;stroke:#E5E9F0;stroke-width:25.2735;stroke-miterlimit:10;}
	.st4{fill:#E5E9F0;stroke:#E5E9F0;stroke-width:8;stroke-miterlimit:10;}
	.st5{fill:none;stroke:#000000;stroke-width:11;stroke-linecap:round;stroke-linejoin:round;stroke-miterlimit:10;}
	.st6{fill:#E5E9F0;}
</style>
<path class="st0" d="M729.2,200.5C753,230,771,262,782,298c15,46,22,92,19,140c-3,42-11,84-28,123c-1,2,0,3-1,5
	c-32,74-81,136-152,179c-27,16-53,29-82,39c-17,5-32,10-50,13c-16,2-30,4-46,6c-6,1-13,0-19,0c-24,2-48-1-72-4c-19-3-36-8-54-13
	c-10-3-20-7-30-11c-15-7-30-13-45-22c-12-8-22-14-34-22c-19-14-35-28-51-44c-41-42-70-90-89-145C14,440,22,330,73,234
	c45-84,118-147,206-180c111-42,240-29,340.1,34.7"/>
<path class="st1" d="M242.5,651.1c-13.7-12.9-106.6-103.3-99.4-244.3c6.3-123.3,84.6-198.8,101.1-214c3.3-3.3,8.8-8.1,16.8-11.8
	c9-4.1,17.1-4.9,21.9-5.1c30.3,0.6,60.7,1.1,91,1.7c1.3,0.1,11,1.3,16.8,10.1c4.9,7.4,3.7,15.2,3.4,16.8c0,147.7,0,295.4,0,443.1"/>
<line class="st1" x1="143.9" y1="407.6" x2="394.1" y2="410.2"/>
<line class="st2" x1="-23.7" y1="0" x2="-18.7" y2="0"/>
<path class="st1" d="M1294.9,656.2h-155.4c-9.7,0-17.5-7.8-17.5-17.5v-425c0-9.7,7.8-17.5,17.5-17.5h155.4c9.7,0,17.5,7.8,17.5,17.5
	v425C1312.4,648.3,1304.6,656.2,1294.9,656.2z"/>
<path class="st1" d="M1561.1,656.2h-155.4c-9.7,0-17.5-7.8-17.5-17.5v-425c0-9.7,7.8-17.5,17.5-17.5h155.4c9.7,0,17.5,7.8,17.5,17.5
	v425C1578.6,648.3,1570.8,656.2,1561.1,656.2z"/>
<path class="st1" d="M1861.7,656.2c-2.9-22.9-12.8-75.5-53.9-124.7c-57-68.2-133.6-81.4-153.3-84.2"/>
<path class="st3" d="M1614,656.2"/>
<line class="st1" x1="1655.3" y1="655.3" x2="1655.3" y2="363.8"/>
<path class="st1" d="M626.6,649.4c-47.8-0.5-95.5-1-143.3-1.5c-1.8,0-8-0.4-13.4-5.3c-7.3-6.6-6.8-16-6.7-17.2
	c0-147.6,0-295.2,0-442.8"/>
<g>
	<path class="st4" d="M1434.6,431.2c-6.5,0-11.8,5.3-11.8,11.8s5.3,11.8,11.8,11.8s11.8-5.3,11.8-11.8S1441.1,431.2,1434.6,431.2
		L1434.6,431.2z"/>
</g>
<path class="st1" d="M1858,443h-184.7c-9.9,0-18-8.1-18-18V213.3c0-9.9,8.1-18,18-18H1858c9.9,0,18,8.1,18,18V425
	C1876,435,1867.9,443,1858,443z"/>
<circle class="st5" cx="87.5" cy="-51.5" r="12"/>
<g>
	<path class="st6" d="M731.9,213.9h-76.4c-5.9,0-10.7-3.3-10.7-7.3V188c0-4,4.8-7.3,10.7-7.3h76.4c5.9,0,10.7,3.3,10.7,7.3v18.6
		C742.5,210.6,737.7,213.9,731.9,213.9z"/>
</g>
<path class="st1" d="M991.4,656.2c-56.4-0.6-114.6-1.1-171-1.7c20.6-34.2,65.4-116.2,65.7-229.1c0.4-112.7-43.7-194.8-64-229.1
	c55.9,0,113.4,0,169.3,0c5.5,1.3,13.1,3.7,20.8,8.6c39,24.8,33.9,81.9,33.9,220.5c0,139.5,5.3,197.3-33.9,222.2
	C1004.2,652.7,996.5,655,991.4,656.2z"/>
<g>
	<path class="st4" d="M1252.6,431.2c-6.5,0-11.8,5.3-11.8,11.8s5.3,11.8,11.8,11.8s11.8-5.3,11.8-11.8S1259.1,431.2,1252.6,431.2
		L1252.6,431.2z"/>
</g>
</svg>
